# xmcd
#
# Track frame offsets: 
#        150
#        16628
#        28924
#        44089
#        61068
#        73200
#        87845
#        111450
#        129815
#        147110
#        165342
#        180921
#        191148
#        204572
#        220606
#        239890
#        253892
#        270544
#        285253
#        302433
#
# Disc length: 4349 seconds
#
# Revision: 6
# Processed by: cddbd v1.5.2PL0 Copyright (c) Steve Scherf et al.
# Submitted via: ExactAudioCopy v0.90b4
#
DISCID=1d10fb14
DTITLE=Various Artist - The Rough Guide To Americana
DYEAR=2001
DGENRE=Folk
TTITLE0=The Handsome Family - Weightless Again
TTITLE1=Andre Williams And The Sadies - Pardon Me (I've Got Someone To
TTITLE1=Kill)
TTITLE2=Neko Case And Her Boyfriends - Guided By Wire
TTITLE3=Gourds - Meat Off The Bone
TTITLE4=Townes Van Zandt - Lost Highway
TTITLE5=Johnny Dowd - Ft. Worth, Texas
TTITLE6=Hazeldine - A Song For You
TTITLE7=Long Ryders - You Don't Know What's Right, You Don't Know What
TTITLE7='s Wrong
TTITLE8=The Original Harmony Ridge Creekdippers - Run With The Ponies
TTITLE9=Waco Brothers - Hello To Everybody
TTITLE10=Dave Alvin - Railroad Bill
TTITLE11=Oh Susanna - Oh My Good Ol' Gal
TTITLE12=Neal Casal - Me And Queen Sylvia
TTITLE13=Noahjohn - Standing On A Snake
TTITLE14=Split Lip Rayfield - Kiss Of Death
TTITLE15=Utah Carol - My Fear
TTITLE16=Nadine - So That I Don't Miss You
TTITLE17=Cowboy Nation - E-Z Ridin' Cowboy
TTITLE18=The Arlenes - She Ran Me Down
TTITLE19=Western Electric - Carousel Days
EXTD=A Rough Guide To Americana - Various Artists\nMy name is Graeme L
EXTD=ynch
EXTT0=
EXTT1=
EXTT2=
EXTT3=
EXTT4=
EXTT5=
EXTT6=
EXTT7=
EXTT8=
EXTT9=
EXTT10=
EXTT11=
EXTT12=
EXTT13=
EXTT14=
EXTT15=
EXTT16=
EXTT17=
EXTT18=
EXTT19=
PLAYORDER=
